<?xml version="1.0" standalone="no"?>
<!DOCTYPE svg PUBLIC "-//W3C//DTD SVG 20010904//EN"
 "http://www.w3.org/TR/2001/REC-SVG-20010904/DTD/svg10.dtd">
<svg version="1.0" xmlns="http://www.w3.org/2000/svg"
 width="264.000000pt" height="264.000000pt" viewBox="0 0 264.000000 264.000000"
 preserveAspectRatio="xMidYMid meet">
<metadata>
Created by potrace 1.14, written by Peter Selinger 2001-2017
</metadata>
<g transform="translate(0.000000,264.000000) scale(0.100000,-0.100000)"
fill="#000000" stroke="none">
<path d="M1255 2505 c-7 -63 -8 -65 -36 -65 -25 0 -29 -4 -29 -29 0 -28 -2
-29 -65 -36 -64 -6 -65 -7 -65 -36 l0 -29 -70 0 -70 0 0 -30 c0 -28 -2 -30
-39 -30 -21 0 -66 -3 -100 -6 -59 -7 -61 -8 -61 -35 0 -29 0 -29 -65 -29 l-65
0 0 30 0 30 -65 0 -65 0 0 -65 0 -65 29 0 c26 0 30 -4 33 -32 3 -29 7 -33 36
-36 28 -3 32 -7 32 -32 0 -29 0 -29 68 -32 l67 -3 1 -155 c1 -85 -1 -172 -3
-192 -5 -34 -8 -38 -34 -38 -26 0 -29 -3 -29 -35 0 -33 -2 -35 -35 -35 -32 0
-35 -2 -35 -29 0 -29 -2 -30 -62 -36 -35 -4 -79 -5 -98 -3 -31 3 -35 6 -38 36
l-3 32 -58 0 -58 0 -7 -60 c-8 -71 -4 -80 35 -80 26 0 29 -3 29 -30 0 -27 3
-30 30 -30 27 0 30 -3 30 -30 0 -29 0 -29 68 -32 l67 -3 3 -197 2 -198 -35 0
c-33 0 -35 -2 -35 -35 0 -33 -2 -35 -35 -35 -32 0 -35 -2 -35 -30 l0 -30 -95
0 -95 0 0 30 0 30 -65 0 -65 0 0 -65 0 -65 30 0 c28 0 30 -3 30 -35 0 -33 2
-35 35 -35 32 0 35 -2 35 -30 l0 -30 65 0 65 0 0 -230 0 -230 990 0 990 0 0
230 0 230 65 0 65 0 0 30 c0 28 3 30 35 30 33 0 35 2 35 35 0 32 2 35 30 35
l30 0 0 65 0 65 -65 0 -65 0 0 -30 0 -30 -95 0 -95 0 0 30 c0 28 -3 30 -35 30
-33 0 -35 2 -35 35 0 33 -2 35 -35 35 l-35 0 2 198 3 197 68 3 c67 3 67 3 67
32 0 27 3 30 30 30 27 0 30 3 30 30 0 27 3 30 30 30 l30 0 0 70 0 70 -59 0
-60 0 -3 -32 c-3 -30 -7 -33 -38 -36 -19 -2 -63 -1 -97 3 -61 6 -63 7 -63 36
0 27 -3 29 -35 29 -33 0 -35 2 -35 35 0 32 -3 35 -29 35 -26 0 -29 3 -35 46
-3 26 -6 114 -6 195 l0 149 70 0 70 0 0 30 c0 27 3 30 30 30 28 0 30 3 30 35
0 33 2 35 35 35 l35 0 0 65 0 65 -70 0 -70 0 0 -30 0 -30 -60 0 -60 0 0 30 c0
28 -2 30 -42 32 -24 0 -47 2 -53 3 -5 2 -31 3 -57 4 -46 1 -48 2 -48 31 l0 30
-70 0 -70 0 0 29 c0 29 -1 30 -65 36 -63 7 -65 8 -65 36 0 24 -4 28 -32 31
-33 3 -33 3 -36 66 l-3 62 -59 0 -58 0 -7 -65z m125 -165 l0 -30 64 0 65 0 3
-32 3 -33 68 -3 c67 -3 67 -3 67 -32 0 -30 1 -30 58 -31 78 0 137 -12 138 -27
1 -6 2 -19 3 -27 1 -12 15 -15 66 -15 l65 0 0 -30 0 -30 -660 0 -660 0 0 30 0
30 65 0 c65 0 65 0 65 29 0 27 3 29 53 35 28 3 73 6 100 6 45 0 47 1 47 30 0
29 0 29 68 32 l67 3 3 33 3 32 65 0 64 0 0 30 0 30 60 0 60 0 0 -30z m470
-525 l0 -165 -530 0 -530 0 0 165 0 165 530 0 530 0 0 -165z m0 -265 c0 -27 3
-30 30 -30 28 0 30 -3 30 -35 0 -33 2 -35 35 -35 32 0 35 -3 35 -29 0 -26 3
-29 46 -35 26 -3 71 -6 100 -6 51 0 53 -1 50 -27 l-3 -28 -857 -3 -856 -2 0
30 c0 30 1 30 54 30 29 0 74 3 100 6 43 6 46 9 46 35 0 26 3 29 35 29 33 0 35
2 35 35 0 32 2 35 30 35 27 0 30 3 30 30 l0 30 530 0 530 0 0 -30z m190 -460
l0 -160 -725 0 -725 0 0 160 0 160 725 0 725 0 0 -160z m2 -267 c2 -23 8 -29
36 -31 29 -3 32 -6 32 -38 0 -32 2 -34 35 -34 32 0 35 -2 35 -30 l0 -30 95 0
95 0 0 -30 0 -30 -1050 0 -1050 0 0 30 0 30 95 0 95 0 0 30 c0 28 3 30 35 30
33 0 35 2 35 35 0 32 2 35 30 35 27 0 30 3 30 30 l0 30 724 0 725 0 3 -27z
m198 -493 l0 -200 -295 0 -295 0 0 135 0 135 -330 0 -330 0 0 -135 0 -135
-295 0 -295 0 0 200 0 200 920 0 920 0 0 -200z m-660 -95 l0 -95 -260 0 -260
0 0 95 0 95 260 0 260 0 0 -95z"/>
</g>
</svg>
